<svg height="1886" width="720" xmlns="http://www.w3.org/2000/svg">
<rect height="1886" fill="#555" width="720"></rect>
<text fill="#7f7" font-family="Courier New" font-size="12" xml:space="preserve">
<tspan x="10" y="26">16 megabytes installed</tspan>
<tspan x="10" y="42"></tspan>
<tspan x="10" y="58">node_modules</tspan>
<tspan x="10" y="74">└─┬ crawler@1.0.4 </tspan>
<tspan x="10" y="90">  ├── bottleneckp@1.1.2 </tspan>
<tspan x="10" y="106">  ├── charset-parser@0.2.0 </tspan>
<tspan x="10" y="122">  ├─┬ cheerio@0.22.0 </tspan>
<tspan x="10" y="138">  │ ├─┬ css-select@1.2.0 </tspan>
<tspan x="10" y="154">  │ │ ├── boolbase@1.0.0 </tspan>
<tspan x="10" y="170">  │ │ ├── css-what@2.1.0 </tspan>
<tspan x="10" y="186">  │ │ ├── domutils@1.5.1 </tspan>
<tspan x="10" y="202">  │ │ └── nth-check@1.0.1 </tspan>
<tspan x="10" y="218">  │ ├─┬ dom-serializer@0.1.0 </tspan>
<tspan x="10" y="234">  │ │ └── domelementtype@1.1.3 </tspan>
<tspan x="10" y="250">  │ ├── entities@1.1.1 </tspan>
<tspan x="10" y="266">  │ ├─┬ htmlparser2@3.9.2 </tspan>
<tspan x="10" y="282">  │ │ ├── domelementtype@1.3.0 </tspan>
<tspan x="10" y="298">  │ │ ├── domhandler@2.3.0 </tspan>
<tspan x="10" y="314">  │ │ ├── inherits@2.0.3 </tspan>
<tspan x="10" y="330">  │ │ └─┬ readable-stream@2.2.9 </tspan>
<tspan x="10" y="346">  │ │   ├── buffer-shims@1.0.0 </tspan>
<tspan x="10" y="362">  │ │   ├── core-util-is@1.0.2 </tspan>
<tspan x="10" y="378">  │ │   ├── isarray@1.0.0 </tspan>
<tspan x="10" y="394">  │ │   ├── process-nextick-args@1.0.7 </tspan>
<tspan x="10" y="410">  │ │   ├── string_decoder@1.0.0 </tspan>
<tspan x="10" y="426">  │ │   └── util-deprecate@1.0.2 </tspan>
<tspan x="10" y="442">  │ ├── lodash.assignin@4.2.0 </tspan>
<tspan x="10" y="458">  │ ├── lodash.bind@4.2.1 </tspan>
<tspan x="10" y="474">  │ ├── lodash.defaults@4.2.0 </tspan>
<tspan x="10" y="490">  │ ├── lodash.filter@4.6.0 </tspan>
<tspan x="10" y="506">  │ ├── lodash.flatten@4.4.0 </tspan>
<tspan x="10" y="522">  │ ├── lodash.foreach@4.5.0 </tspan>
<tspan x="10" y="538">  │ ├── lodash.map@4.6.0 </tspan>
<tspan x="10" y="554">  │ ├── lodash.merge@4.6.0 </tspan>
<tspan x="10" y="570">  │ ├── lodash.pick@4.4.0 </tspan>
<tspan x="10" y="586">  │ ├── lodash.reduce@4.6.0 </tspan>
<tspan x="10" y="602">  │ ├── lodash.reject@4.6.0 </tspan>
<tspan x="10" y="618">  │ └── lodash.some@4.6.0 </tspan>
<tspan x="10" y="634">  ├── iconv-lite@0.4.15 </tspan>
<tspan x="10" y="650">  ├── lodash@4.17.4 </tspan>
<tspan x="10" y="666">  ├─┬ request@2.79.0 </tspan>
<tspan x="10" y="682">  │ ├── aws-sign2@0.6.0 </tspan>
<tspan x="10" y="698">  │ ├── aws4@1.6.0 </tspan>
<tspan x="10" y="714">  │ ├── caseless@0.11.0 </tspan>
<tspan x="10" y="730">  │ ├─┬ combined-stream@1.0.5 </tspan>
<tspan x="10" y="746">  │ │ └── delayed-stream@1.0.0 </tspan>
<tspan x="10" y="762">  │ ├── extend@3.0.0 </tspan>
<tspan x="10" y="778">  │ ├── forever-agent@0.6.1 </tspan>
<tspan x="10" y="794">  │ ├─┬ form-data@2.1.4 </tspan>
<tspan x="10" y="810">  │ │ └── asynckit@0.4.0 </tspan>
<tspan x="10" y="826">  │ ├─┬ har-validator@2.0.6 </tspan>
<tspan x="10" y="842">  │ │ ├─┬ chalk@1.1.3 </tspan>
<tspan x="10" y="858">  │ │ │ ├── ansi-styles@2.2.1 </tspan>
<tspan x="10" y="874">  │ │ │ ├── escape-string-regexp@1.0.5 </tspan>
<tspan x="10" y="890">  │ │ │ ├─┬ has-ansi@2.0.0 </tspan>
<tspan x="10" y="906">  │ │ │ │ └── ansi-regex@2.1.1 </tspan>
<tspan x="10" y="922">  │ │ │ ├── strip-ansi@3.0.1 </tspan>
<tspan x="10" y="938">  │ │ │ └── supports-color@2.0.0 </tspan>
<tspan x="10" y="954">  │ │ ├─┬ commander@2.9.0 </tspan>
<tspan x="10" y="970">  │ │ │ └── graceful-readlink@1.0.1 </tspan>
<tspan x="10" y="986">  │ │ ├─┬ is-my-json-valid@2.16.0 </tspan>
<tspan x="10" y="1002">  │ │ │ ├── generate-function@2.0.0 </tspan>
<tspan x="10" y="1018">  │ │ │ ├─┬ generate-object-property@1.2.0 </tspan>
<tspan x="10" y="1034">  │ │ │ │ └── is-property@1.0.2 </tspan>
<tspan x="10" y="1050">  │ │ │ ├── jsonpointer@4.0.1 </tspan>
<tspan x="10" y="1066">  │ │ │ └── xtend@4.0.1 </tspan>
<tspan x="10" y="1082">  │ │ └─┬ pinkie-promise@2.0.1 </tspan>
<tspan x="10" y="1098">  │ │   └── pinkie@2.0.4 </tspan>
<tspan x="10" y="1114">  │ ├─┬ hawk@3.1.3 </tspan>
<tspan x="10" y="1130">  │ │ ├── boom@2.10.1 </tspan>
<tspan x="10" y="1146">  │ │ ├── cryptiles@2.0.5 </tspan>
<tspan x="10" y="1162">  │ │ ├── hoek@2.16.3 </tspan>
<tspan x="10" y="1178">  │ │ └── sntp@1.0.9 </tspan>
<tspan x="10" y="1194">  │ ├─┬ http-signature@1.1.1 </tspan>
<tspan x="10" y="1210">  │ │ ├── assert-plus@0.2.0 </tspan>
<tspan x="10" y="1226">  │ │ ├─┬ jsprim@1.4.0 </tspan>
<tspan x="10" y="1242">  │ │ │ ├── assert-plus@1.0.0 </tspan>
<tspan x="10" y="1258">  │ │ │ ├── extsprintf@1.0.2 </tspan>
<tspan x="10" y="1274">  │ │ │ ├── json-schema@0.2.3 </tspan>
<tspan x="10" y="1290">  │ │ │ └── verror@1.3.6 </tspan>
<tspan x="10" y="1306">  │ │ └─┬ sshpk@1.13.0 </tspan>
<tspan x="10" y="1322">  │ │   ├── asn1@0.2.3 </tspan>
<tspan x="10" y="1338">  │ │   ├── assert-plus@1.0.0 </tspan>
<tspan x="10" y="1354">  │ │   ├── bcrypt-pbkdf@1.0.1 </tspan>
<tspan x="10" y="1370">  │ │   ├─┬ dashdash@1.14.1 </tspan>
<tspan x="10" y="1386">  │ │   │ └── assert-plus@1.0.0 </tspan>
<tspan x="10" y="1402">  │ │   ├── ecc-jsbn@0.1.1 </tspan>
<tspan x="10" y="1418">  │ │   ├─┬ getpass@0.1.6 </tspan>
<tspan x="10" y="1434">  │ │   │ └── assert-plus@1.0.0 </tspan>
<tspan x="10" y="1450">  │ │   ├── jodid25519@1.0.2 </tspan>
<tspan x="10" y="1466">  │ │   ├── jsbn@0.1.1 </tspan>
<tspan x="10" y="1482">  │ │   └── tweetnacl@0.14.5 </tspan>
<tspan x="10" y="1498">  │ ├── is-typedarray@1.0.0 </tspan>
<tspan x="10" y="1514">  │ ├── isstream@0.1.2 </tspan>
<tspan x="10" y="1530">  │ ├── json-stringify-safe@5.0.1 </tspan>
<tspan x="10" y="1546">  │ ├─┬ mime-types@2.1.15 </tspan>
<tspan x="10" y="1562">  │ │ └── mime-db@1.27.0 </tspan>
<tspan x="10" y="1578">  │ ├── oauth-sign@0.8.2 </tspan>
<tspan x="10" y="1594">  │ ├── qs@6.3.2 </tspan>
<tspan x="10" y="1610">  │ ├── stringstream@0.0.5 </tspan>
<tspan x="10" y="1626">  │ ├─┬ tough-cookie@2.3.2 </tspan>
<tspan x="10" y="1642">  │ │ └── punycode@1.4.1 </tspan>
<tspan x="10" y="1658">  │ ├── tunnel-agent@0.4.3 </tspan>
<tspan x="10" y="1674">  │ └── uuid@3.0.1 </tspan>
<tspan x="10" y="1690">  ├─┬ seenreq@0.1.11 </tspan>
<tspan x="10" y="1706">  │ ├─┬ ioredis@1.15.1 </tspan>
<tspan x="10" y="1722">  │ │ ├── bluebird@2.11.0 </tspan>
<tspan x="10" y="1738">  │ │ ├─┬ debug@2.6.4 </tspan>
<tspan x="10" y="1754">  │ │ │ └── ms@0.7.3 </tspan>
<tspan x="10" y="1770">  │ │ ├── double-ended-queue@2.1.0-0 </tspan>
<tspan x="10" y="1786">  │ │ ├── flexbuffer@0.0.6 </tspan>
<tspan x="10" y="1802">  │ │ └── lodash@3.10.1 </tspan>
<tspan x="10" y="1818">  │ ├── node-url-utils@0.4.0 </tspan>
<tspan x="10" y="1834">  │ └── utils-merge@1.0.0 </tspan>
<tspan x="10" y="1850">  └─┬ type-is@1.6.15 </tspan>
<tspan x="10" y="1866">    └── media-typer@0.3.0</tspan>
</text>
</svg>
